# File created by Blade
# Date/Time:  Tue Apr 07 20:18:06 2015
#---------------------------------------------------------
:version 1.10
:name HOM
:units
  mass 1.0
  length 1.000000
  angle deg
:documentation
     Acclaim Skeleton File
:root
   axis xyz
   order TX TY TZ RX RY RZ
   position 0.000000 0.000000 0.000000
   orientation 0 0 0
:bonedata
   begin
      id 1
      name Spine_dum
      direction 0.000000 1.000000 0.000000
      length 4.885285
      axis 0.0 0.0 0.0 xyz
   end
   begin
      id 2
      name LeftUpLeg_dum
      direction 1.000000 0.000000 0.000000
      length 2.672193
      axis 0.0 0.0 0.0 xyz
   end
   begin
      id 3
      name RightUpLeg_dum
      direction -1.000000 0.000000 0.000000
      length 2.672193
      axis 0.0 0.0 0.0 xyz
   end
   begin
      id 4
      name Spine
      direction 0.000000 1.000000 0.000000
      length 0.000000
      axis 0.0 0.0 0.0 xyz
      dof rx ry rz
   end
   begin
      id 5
      name Spine_dum1
      direction 0.000000 1.000000 0.000000
      length 16.494159
      axis 0.0 0.0 0.0 xyz
   end
   begin
      id 6
      name Spine_dum2
      direction 0.000000 1.000000 0.000000
      length 10.663448
      axis 0.0 0.0 0.0 xyz
   end
   begin
      id 7
      name Spine_dum3
      direction 0.000000 1.000000 0.000000
      length 10.663448
      axis 0.0 0.0 0.0 xyz
   end
   begin
      id 8
      name Head
      direction 0.000000 1.000000 0.000000
      length 4.527550
      axis 0.0 0.0 0.0 xyz
      dof rx ry rz
   end
   begin
      id 9
      name LeftShoulder
      direction 1.000000 0.000000 0.000000
      length 7.531907
      axis 0.0 0.0 -90.0 xyz
      dof rx ry rz
   end
   begin
      id 10
      name LeftArm
      direction 1.000000 0.000000 0.000000
      length 10.229199
      axis 0.0 0.0 -90.0 xyz
      dof rx ry rz
   end
   begin
      id 11
      name LeftForeArm
      direction 1.000000 0.000000 0.000000
      length 8.673495
      axis 0.0 0.0 -90.0 xyz
      dof ry rz rx
   end
   begin
      id 12
      name LeftHand
      direction 0.000000 0.000000 0.000000
      length 0.000000
      axis 0.0 0.0 -90.0 xyz
      dof rx ry rz
   end
   begin
      id 13
      name LeftHand_dum1
      direction 0.000000 0.000000 0.000000
      length 0.000000
      axis 0.0 0.0 -90.0 xyz
   end
   begin
      id 14
      name LeftHand_dum2
      direction 1.000000 0.000000 0.000000
      length 3.937000
      axis 0.0 0.0 -90.0 xyz
   end
   begin
      id 15
      name LeftHandThumb1
      direction 0.000000 0.000000 1.000000
      length 3.937000
      axis 0.0 0.0 -90.0 xyz
      dof rx rz ry
   end
   begin
      id 16
      name RightShoulder
      direction -1.000000 0.000000 0.000000
      length 7.531907
      axis 0.0 0.0 90.0 xyz
      dof rx ry rz
   end
   begin
      id 17
      name RightArm
      direction -1.000000 0.000000 0.000000
      length 10.229199
      axis 0.0 0.0 90.0 xyz
      dof rx ry rz
   end
   begin
      id 18
      name RightForeArm
      direction -1.000000 0.000000 0.000000
      length 8.673495
      axis 0.0 0.0 90.0 xyz
      dof ry rz rx
   end
   begin
      id 19
      name RightHand
      direction 0.000000 0.000000 0.000000
      length 0.000000
      axis 0.0 0.0 90.0 xyz
      dof rx ry rz
   end
   begin
      id 20
      name RightHand_dum1
      direction 0.000000 0.000000 0.000000
      length 0.000000
      axis 0.0 0.0 90.0 xyz
   end
   begin
      id 21
      name RightHand_dum2
      direction -1.000000 0.000000 0.000000
      length 3.937000
      axis 0.0 0.0 90.0 xyz
   end
   begin
      id 22
      name RightHandThumb1
      direction 0.000000 0.000000 1.000000
      length 3.937000
      axis 0.0 0.0 90.0 xyz
      dof rx rz ry
   end
   begin
      id 23
      name LeftUpLeg
      direction 0.000000 -1.000000 0.000000
      length 16.263388
      axis 0.0 0.0 0.0 xyz
      dof rx ry rz
   end
   begin
      id 24
      name LeftLeg
      direction 0.000000 -1.000000 0.000000
      length 14.328163
      axis 0.0 0.0 0.0 xyz
      dof rx ry rz
   end
   begin
      id 25
      name LeftFoot
      direction 0.000000 -0.258819 0.965926
      length 5.031290
      axis 15.0 0.0 0.0 xyz
      dof rx ry rz
   end
   begin
      id 26
      name LeftToeBase
      direction 0.000000 0.000000 1.000000
      length 2.952750
      axis 0.0 0.0 0.0 xyz
      dof rx ry rz
   end
   begin
      id 27
      name RightUpLeg
      direction 0.000000 -1.000000 0.000000
      length 16.263388
      axis 0.0 0.0 0.0 xyz
      dof rx ry rz
   end
   begin
      id 28
      name RightLeg
      direction 0.000000 -1.000000 0.000000
      length 14.328163
      axis 0.0 0.0 0.0 xyz
      dof rx ry rz
   end
   begin
      id 29
      name RightFoot
      direction 0.000000 -0.258819 0.965926
      length 5.031290
      axis 15.0 0.0 0.0 xyz
      dof rx ry rz
   end
   begin
      id 30
      name RightToeBase
      direction 0.000000 0.000000 1.000000
      length 2.952750
      axis 0.0 0.0 0.0 xyz
      dof rx ry rz
   end
:hierarchy
   begin
      root Spine_dum LeftUpLeg_dum RightUpLeg_dum
      Spine_dum Spine
      LeftUpLeg_dum LeftUpLeg
      RightUpLeg_dum RightUpLeg
      Spine Spine_dum1 Spine_dum2 Spine_dum3
      Spine_dum1 Head
      Spine_dum2 LeftShoulder
      Spine_dum3 RightShoulder
      LeftShoulder LeftArm
      LeftArm LeftForeArm
      LeftForeArm LeftHand
      LeftHand LeftHand_dum1 LeftHand_dum2
      LeftHand_dum1 LeftHandThumb1
      RightShoulder RightArm
      RightArm RightForeArm
      RightForeArm RightHand
      RightHand RightHand_dum1 RightHand_dum2
      RightHand_dum1 RightHandThumb1
      LeftUpLeg LeftLeg
      LeftLeg LeftFoot
      LeftFoot LeftToeBase
      RightUpLeg RightLeg
      RightLeg RightFoot
      RightFoot RightToeBase
   end

# File created by Blade
# Date/Time:  Tue Apr 07 20:17:56 2015
# Frame Rate: 120.000 fps
#------------------------------------------------------
:FULLY-SPECIFIED
:DEGREES
240
root 3.023761 32.780255 -8.331592 13.996567 0.560452 -1.635838
Spine -12.108208 -4.521492 -0.989981
Head 11.536077 -3.502214 3.234113
LeftShoulder -17.107082 45.588645 8.537417
LeftArm 51.559844 11.233333 -80.598195
LeftForeArm -5.500101 -0.000000 12.532539
LeftHand 6.737221 0.000000 -4.444864
LeftHandThumb1 -26.253704 0.000000 33.147579
RightShoulder -4.775218 -8.971692 -15.728159
RightArm 14.909417 -18.521151 89.592868
RightForeArm 4.603158 -0.000000 14.287003
RightHand 4.022917 -0.000000 7.688993
RightHandThumb1 -24.326973 -0.000000 -32.862282
LeftUpLeg -12.772778 -6.596897 1.065490
LeftLeg 5.411615 -0.000000 -0.000000
LeftFoot -18.516042 6.670680 -23.655161
LeftToeBase -4.207092 -0.000000 0.000000
RightUpLeg -11.176559 -2.848073 1.384414
RightLeg -1.634374 -0.000000 0.000000
RightFoot -5.243705 -4.726041 5.292493
RightToeBase 1.325993 -0.000000 -0.000000
241
root 3.036736 32.778949 -8.324966 13.965176 0.500176 -1.712418
Spine -12.093939 -4.490153 -0.963719
Head 11.691907 -3.494824 3.258782
LeftShoulder -17.235276 45.659834 8.582046
LeftArm 51.533934 10.556832 -80.612859
LeftForeArm -5.506221 -0.000000 12.829011
LeftHand 6.819126 0.000000 -4.170290
LeftHandThumb1 -26.253704 0.000000 33.147579
RightShoulder -4.814318 -8.928461 -15.663021
RightArm 14.959420 -18.093680 89.296038
RightForeArm 4.189857 0.000000 14.517461
RightHand 4.108116 -0.000000 6.781682
RightHandThumb1 -24.326973 -0.000000 -32.862282
LeftUpLeg -12.779467 -6.137147 1.057270
LeftLeg 5.408194 -0.000000 -0.000000
LeftFoot -17.598451 6.620956 -23.723904
LeftToeBase -3.889274 -0.000000 0.000000
RightUpLeg -11.164131 -2.810371 1.428405
RightLeg -1.581682 -0.000000 0.000000
RightFoot -5.251075 -4.703507 5.324418
RightToeBase 1.292799 -0.000000 -0.000000
242
root 3.047749 32.779392 -8.317464 13.930480 0.444009 -1.810682
Spine -12.089266 -4.467208 -0.921365
Head 11.876578 -3.478213 3.307991
LeftShoulder -17.314917 45.714491 8.664436
LeftArm 51.441035 9.869562 -80.635494
LeftForeArm -5.503095 -0.000000 13.179611
LeftHand 6.848260 -0.000000 -3.801535
LeftHandThumb1 -26.253704 0.000000 33.147579
RightShoulder -4.848782 -8.908683 -15.592634
RightArm 15.028768 -17.706680 88.970706
RightForeArm 4.215607 0.000000 14.714646
RightHand 4.320407 -0.000000 7.066914
RightHandThumb1 -24.326973 -0.000000 -32.862282
LeftUpLeg -12.776280 -5.562595 1.060387
LeftLeg 5.360146 -0.000000 -0.000000
LeftFoot -16.530933 6.687111 -23.392435
LeftToeBase -2.878548 -0.000000 0.000000
RightUpLeg -11.179352 -2.874547 1.522869
RightLeg -1.468067 -0.000000 0.000000
RightFoot -5.270342 -4.594278 5.308315
RightToeBase 1.310017 -0.000000 -0.000000
243
root 3.063039 32.780349 -8.304727 13.893855 0.425345 -1.874276
Spine -12.102355 -4.493124 -0.894828
Head 12.088489 -3.466444 3.356293
LeftShoulder -17.435923 45.840117 8.695812
LeftArm 51.406048 9.166286 -80.628130
LeftForeArm -5.481537 0.000000 13.522584
LeftHand 6.943726 -0.000000 -3.585744
LeftHandThumb1 -26.253704 0.000000 33.147579
RightShoulder -4.896141 -8.942106 -15.519388
RightArm 15.093331 -17.126038 88.682555
RightForeArm 3.757453 -0.000000 14.974995
RightHand 4.297830 -0.000000 6.279961
RightHandThumb1 -24.326973 -0.000000 -32.862282
LeftUpLeg -12.747288 -4.944236 1.007902
LeftLeg 5.262529 -0.000000 -0.000000
LeftFoot -15.333719 6.806119 -22.653217
LeftToeBase -1.795018 -0.000000 0.000000
RightUpLeg -11.156947 -2.950053 1.578557
RightLeg -1.403466 -0.000000 0.000000
RightFoot -5.282557 -4.528548 5.322819
RightToeBase 1.313024 -0.000000 -0.000000
244
root 3.079209 32.782716 -8.293364 13.869631 0.370827 -1.922116
Spine -12.125222 -4.496200 -0.897943
Head 12.303880 -3.493244 3.395002
LeftShoulder -17.542263 45.943844 8.746355
LeftArm 51.350422 8.474766 -80.611471
LeftForeArm -5.457556 -0.000000 13.861598
LeftHand 6.970692 -0.000000 -3.247944
LeftHandThumb1 -26.253704 0.000000 33.147579
RightShoulder -4.953256 -8.947987 -15.436713
RightArm 15.134065 -16.437822 88.441667
RightForeArm 3.650107 -0.000000 15.172000
RightHand 4.177149 -0.000000 7.001088
RightHandThumb1 -24.326973 -0.000000 -32.862282
LeftUpLeg -12.730391 -4.178300 0.887791
LeftLeg 5.166636 -0.000000 -0.000000
LeftFoot -14.070437 6.873091 -21.504560
LeftToeBase -0.977375 -0.000000 0.000000
RightUpLeg -11.184535 -3.047383 1.622243
RightLeg -1.272042 -0.000000 0.000000
RightFoot -5.303830 -4.422877 5.284551
RightToeBase 1.280212 -0.000000 -0.000000
